# xmcd
#
# Track frame offsets:
#	150
#	11445
#	24730
#	32882
#	49850
#	64902
#	71080
#	82537
#	94980
#	109980
#	119430
#	134322
#	146007
#	156587
#
# Disc length: 2174 seconds
#
# Revision: 0
# Processed by: cddbd v1.5.1PL0 Copyright (c) Steve Scherf et al.
# Submitted via: audiograbber 1.83.01
#
DISCID=c7087c0e
DTITLE=Diverse - Stubenmusik
DYEAR=1900
DGENRE=Volksmusik
TTITLE0=Koa langsama
TTITLE1=Köflach Walzer
TTITLE2=Ausserferner Schwegelmarsch
TTITLE3=Elisbeth's Walzer
TTITLE4=Emacker Boarischer
TTITLE5=Meraner Jodler
TTITLE6=Gamsjäger Marsch
TTITLE7=Lacknalm Boarischer
TTITLE8=Staade Chiemseer-Weis
TTITLE9=Krautschüssel-Polka
TTITLE10=Saitenklang
TTITLE11=Faschingstoas
TTITLE12=Hackbrettlandler
TTITLE13=Schweizer Polka
EXTD=Frisch aufg'spielt - Echte Volksmusik aus dem Alpenland
EXTT0=
EXTT1=
EXTT2=
EXTT3=
EXTT4=
EXTT5=
EXTT6=
EXTT7=
EXTT8=
EXTT9=
EXTT10=
EXTT11=
EXTT12=
EXTT13=
PLAYORDER=
